<svg xmlns="http://www.w3.org/2000/svg" width="20" height="20" viewBox="0 0 20 20">
    <path fill="#928C63" fill-rule="evenodd" d="M10 0C7.283 0 6.944.013 5.878.06 4.812.11 4.088.278 3.45.525c-.658.255-1.216.598-1.772 1.153C1.123 2.234.78 2.792.525 3.45.278 4.088.109 4.812.06 5.878.01 6.944 0 7.283 0 10c0 2.717.013 3.056.06 4.123.05 1.064.218 1.79.465 2.427.255.657.598 1.216 1.153 1.772.556.555 1.114.899 1.772 1.153.638.247 1.363.416 2.428.465 1.066.05 1.405.06 4.122.06 2.717 0 3.056-.012 4.123-.06 1.064-.05 1.79-.218 2.427-.465.657-.255 1.216-.598 1.772-1.153.555-.556.899-1.113 1.153-1.772.247-.638.416-1.363.465-2.428.05-1.066.06-1.405.06-4.122 0-2.717-.012-3.056-.06-4.122-.05-1.065-.218-1.791-.465-2.428-.255-.658-.598-1.216-1.153-1.772-.556-.555-1.113-.899-1.772-1.153-.638-.247-1.363-.416-2.428-.465C13.056.01 12.718 0 10 0zm0 1.8c2.67 0 2.988.013 4.042.06.975.045 1.504.207 1.856.345.468.18.8.397 1.151.747.35.35.566.682.747 1.15.137.352.3.881.344 1.856.047 1.055.058 1.372.058 4.042s-.012 2.988-.061 4.042c-.051.975-.214 1.504-.351 1.856-.187.468-.4.8-.75 1.151-.349.35-.686.566-1.15.747-.35.137-.887.3-1.862.344-1.061.047-1.374.058-4.049.058-2.676 0-2.988-.012-4.05-.061-.975-.051-1.513-.214-1.862-.351-.475-.187-.8-.4-1.15-.75-.35-.349-.575-.686-.75-1.15-.137-.35-.299-.887-.35-1.862-.037-1.05-.05-1.374-.05-4.036 0-2.664.013-2.989.05-4.051.051-.975.213-1.512.35-1.862.175-.475.4-.8.75-1.15.35-.35.675-.575 1.15-.75.35-.137.875-.3 1.85-.35 1.063-.037 1.375-.05 4.05-.05L10 1.8zm0 3.065c-2.838 0-5.135 2.3-5.135 5.135 0 2.838 2.3 5.135 5.135 5.135 2.838 0 5.135-2.3 5.135-5.135 0-2.838-2.3-5.135-5.135-5.135zm0 8.468c-1.842 0-3.333-1.491-3.333-3.333S8.158 6.667 10 6.667 13.333 8.158 13.333 10 11.842 13.333 10 13.333zm6.538-8.67c0 .662-.538 1.2-1.2 1.2-.662 0-1.2-.539-1.2-1.2 0-.662.539-1.2 1.2-1.2.661 0 1.2.538 1.2 1.2z"/>
</svg>
